<svg width="1026" height="1350" viewBox="0 0 1026 1350" fill="none" xmlns="http://www.w3.org/2000/svg">
<path fill-rule="evenodd" clip-rule="evenodd" d="M807.846 0L1025.19 217.347V1259.95C1025.19 1309.43 985.079 1349.54 935.596 1349.54H89.5964C40.1137 1349.54 0 1309.43 0 1259.95V89.5963C0 40.1136 40.1137 0 89.5963 0H807.846ZM973.995 238.554V1259.95C973.995 1281.15 956.803 1298.34 935.596 1298.34H89.5964C68.3895 1298.34 51.1979 1281.15 51.1979 1259.95V89.5963C51.1979 68.3895 68.3895 51.1979 89.5963 51.1979H786.639L973.995 238.554Z" fill="#5769A8"/>
<path fill-rule="evenodd" clip-rule="evenodd" d="M786.639 51.198H89.5964C68.3895 51.198 51.1979 68.3895 51.1979 89.5964V1259.95C51.1979 1281.15 68.3895 1298.34 89.5964 1298.34H398.389V949.343C398.389 935.205 409.85 923.744 423.988 923.744H605.773C619.911 923.744 631.372 935.205 631.372 949.343V1298.34H935.597C956.803 1298.34 973.995 1281.15 973.995 1259.95V238.554L786.639 51.198ZM222.983 343.569C208.845 343.569 197.384 355.03 197.384 369.168V418.473C197.384 432.611 208.845 444.072 222.983 444.072H802.21C816.348 444.072 827.809 432.611 827.809 418.473V369.168C827.809 355.03 816.348 343.569 802.21 343.569H222.983ZM197.384 533.627C197.384 519.489 208.845 508.028 222.983 508.028H802.21C816.348 508.028 827.809 519.489 827.809 533.627V582.932C827.809 597.07 816.348 608.531 802.21 608.531H222.983C208.845 608.531 197.384 597.07 197.384 582.932V533.627ZM222.983 672.487C208.845 672.487 197.384 683.948 197.384 698.086V747.391C197.384 761.529 208.845 772.99 222.983 772.99H802.21C816.348 772.99 827.809 761.529 827.809 747.391V698.086C827.809 683.948 816.348 672.487 802.21 672.487H222.983Z" fill="#667BC6"/>
<path fill-rule="evenodd" clip-rule="evenodd" d="M786.639 51.1983L973.995 238.554H814.049C798.911 238.554 786.639 226.283 786.639 211.145V51.1983Z" fill="black" fill-opacity="0.15"/>
</svg>
